<mxfile host="app.diagrams.net" agent="Mozilla/5.0 (Windows NT 10.0; Win64; x64; rv:131.0) Gecko/20100101 Firefox/131.0" version="24.8.2">
  <diagram name="第 1 页" id="o2Abipi5t74kJlWFP4eo">
    <mxGraphModel dx="3667" dy="2654" grid="1" gridSize="10" guides="1" tooltips="1" connect="1" arrows="1" fold="1" page="1" pageScale="1" pageWidth="827" pageHeight="1169" math="0" shadow="0">
      <root>
        <mxCell id="0" />
        <mxCell id="1" parent="0" />
        <mxCell id="bN_MSa4zNUe5vcDa_40R-1" value="" style="whiteSpace=wrap;html=1;aspect=fixed;" vertex="1" parent="1">
          <mxGeometry x="-687.5" y="-1050" width="210" height="210" as="geometry" />
        </mxCell>
        <mxCell id="bN_MSa4zNUe5vcDa_40R-2" value="用户" style="shape=umlActor;verticalLabelPosition=bottom;verticalAlign=top;html=1;outlineConnect=0;" vertex="1" parent="1">
          <mxGeometry x="-750" y="-970" width="30" height="60" as="geometry" />
        </mxCell>
        <mxCell id="bN_MSa4zNUe5vcDa_40R-3" value="&lt;font style=&quot;font-size: 6px;&quot;&gt;在线音乐网站&lt;/font&gt;" style="text;html=1;align=center;verticalAlign=middle;whiteSpace=wrap;rounded=0;" vertex="1" parent="1">
          <mxGeometry x="-607.5" y="-1030" width="45" height="20" as="geometry" />
        </mxCell>
        <mxCell id="bN_MSa4zNUe5vcDa_40R-4" value="" style="ellipse;whiteSpace=wrap;html=1;" vertex="1" parent="1">
          <mxGeometry x="-657.5" y="-1047.5" width="145" height="200" as="geometry" />
        </mxCell>
        <mxCell id="bN_MSa4zNUe5vcDa_40R-5" value="&lt;font style=&quot;font-size: 15px;&quot;&gt;前台功能模块&lt;/font&gt;" style="text;html=1;align=center;verticalAlign=middle;whiteSpace=wrap;rounded=0;" vertex="1" parent="1">
          <mxGeometry x="-633.75" y="-1010" width="102.5" height="10" as="geometry" />
        </mxCell>
        <mxCell id="bN_MSa4zNUe5vcDa_40R-6" value="登录" style="ellipse;whiteSpace=wrap;html=1;" vertex="1" parent="1">
          <mxGeometry x="-615" y="-930" width="65" height="30" as="geometry" />
        </mxCell>
        <mxCell id="bN_MSa4zNUe5vcDa_40R-7" style="edgeStyle=orthogonalEdgeStyle;rounded=0;orthogonalLoop=1;jettySize=auto;html=1;exitX=0.5;exitY=1;exitDx=0;exitDy=0;entryX=0.5;entryY=0;entryDx=0;entryDy=0;" edge="1" parent="1" source="bN_MSa4zNUe5vcDa_40R-8" target="bN_MSa4zNUe5vcDa_40R-6">
          <mxGeometry relative="1" as="geometry" />
        </mxCell>
        <mxCell id="bN_MSa4zNUe5vcDa_40R-8" value="注册" style="ellipse;whiteSpace=wrap;html=1;" vertex="1" parent="1">
          <mxGeometry x="-615" y="-990" width="60" height="30" as="geometry" />
        </mxCell>
        <mxCell id="bN_MSa4zNUe5vcDa_40R-9" value="音乐下载" style="ellipse;whiteSpace=wrap;html=1;" vertex="1" parent="1">
          <mxGeometry x="-458" y="-960" width="90" height="50" as="geometry" />
        </mxCell>
        <mxCell id="bN_MSa4zNUe5vcDa_40R-10" value="音乐评价" style="ellipse;whiteSpace=wrap;html=1;" vertex="1" parent="1">
          <mxGeometry x="-458" y="-1080" width="90" height="50" as="geometry" />
        </mxCell>
        <mxCell id="bN_MSa4zNUe5vcDa_40R-11" value="音乐收藏" style="ellipse;whiteSpace=wrap;html=1;" vertex="1" parent="1">
          <mxGeometry x="-458" y="-900" width="90" height="50" as="geometry" />
        </mxCell>
        <mxCell id="bN_MSa4zNUe5vcDa_40R-12" value="用户个人信息管理" style="ellipse;whiteSpace=wrap;html=1;" vertex="1" parent="1">
          <mxGeometry x="-458" y="-1020" width="90" height="50" as="geometry" />
        </mxCell>
        <mxCell id="bN_MSa4zNUe5vcDa_40R-13" value="音乐播放" style="ellipse;whiteSpace=wrap;html=1;" vertex="1" parent="1">
          <mxGeometry x="-458" y="-840" width="90" height="50" as="geometry" />
        </mxCell>
        <mxCell id="bN_MSa4zNUe5vcDa_40R-14" value="" style="endArrow=classic;html=1;rounded=0;entryX=0;entryY=0.5;entryDx=0;entryDy=0;" edge="1" parent="1" target="bN_MSa4zNUe5vcDa_40R-10">
          <mxGeometry width="50" height="50" relative="1" as="geometry">
            <mxPoint x="-550" y="-915" as="sourcePoint" />
            <mxPoint x="-500" y="-965" as="targetPoint" />
            <Array as="points" />
          </mxGeometry>
        </mxCell>
        <mxCell id="bN_MSa4zNUe5vcDa_40R-15" value="" style="endArrow=classic;html=1;rounded=0;entryX=0;entryY=0.5;entryDx=0;entryDy=0;exitX=1;exitY=0.5;exitDx=0;exitDy=0;" edge="1" parent="1" source="bN_MSa4zNUe5vcDa_40R-6" target="bN_MSa4zNUe5vcDa_40R-12">
          <mxGeometry width="50" height="50" relative="1" as="geometry">
            <mxPoint x="-540" y="-905" as="sourcePoint" />
            <mxPoint x="-448" y="-1045" as="targetPoint" />
            <Array as="points" />
          </mxGeometry>
        </mxCell>
        <mxCell id="bN_MSa4zNUe5vcDa_40R-16" value="" style="endArrow=classic;html=1;rounded=0;entryX=0;entryY=0.5;entryDx=0;entryDy=0;exitX=1;exitY=0.5;exitDx=0;exitDy=0;" edge="1" parent="1" source="bN_MSa4zNUe5vcDa_40R-6" target="bN_MSa4zNUe5vcDa_40R-9">
          <mxGeometry width="50" height="50" relative="1" as="geometry">
            <mxPoint x="-530" y="-895" as="sourcePoint" />
            <mxPoint x="-438" y="-1035" as="targetPoint" />
            <Array as="points" />
          </mxGeometry>
        </mxCell>
        <mxCell id="bN_MSa4zNUe5vcDa_40R-17" value="" style="endArrow=classic;html=1;rounded=0;entryX=0;entryY=0.5;entryDx=0;entryDy=0;exitX=1;exitY=0.5;exitDx=0;exitDy=0;" edge="1" parent="1" source="bN_MSa4zNUe5vcDa_40R-6" target="bN_MSa4zNUe5vcDa_40R-11">
          <mxGeometry width="50" height="50" relative="1" as="geometry">
            <mxPoint x="-520" y="-885" as="sourcePoint" />
            <mxPoint x="-428" y="-1025" as="targetPoint" />
            <Array as="points" />
          </mxGeometry>
        </mxCell>
        <mxCell id="bN_MSa4zNUe5vcDa_40R-18" value="" style="endArrow=classic;html=1;rounded=0;entryX=0;entryY=0.5;entryDx=0;entryDy=0;exitX=1;exitY=0.5;exitDx=0;exitDy=0;" edge="1" parent="1" source="bN_MSa4zNUe5vcDa_40R-6" target="bN_MSa4zNUe5vcDa_40R-13">
          <mxGeometry width="50" height="50" relative="1" as="geometry">
            <mxPoint x="-510" y="-875" as="sourcePoint" />
            <mxPoint x="-418" y="-1015" as="targetPoint" />
            <Array as="points" />
          </mxGeometry>
        </mxCell>
        <mxCell id="bN_MSa4zNUe5vcDa_40R-19" style="edgeStyle=orthogonalEdgeStyle;rounded=0;orthogonalLoop=1;jettySize=auto;html=1;exitX=1;exitY=0.3333333333333333;exitDx=0;exitDy=0;exitPerimeter=0;" edge="1" parent="1" source="bN_MSa4zNUe5vcDa_40R-2" target="bN_MSa4zNUe5vcDa_40R-8">
          <mxGeometry relative="1" as="geometry" />
        </mxCell>
        <mxCell id="bN_MSa4zNUe5vcDa_40R-20" style="edgeStyle=orthogonalEdgeStyle;rounded=0;orthogonalLoop=1;jettySize=auto;html=1;exitX=1;exitY=0.3333333333333333;exitDx=0;exitDy=0;exitPerimeter=0;" edge="1" parent="1" source="bN_MSa4zNUe5vcDa_40R-2" target="bN_MSa4zNUe5vcDa_40R-6">
          <mxGeometry relative="1" as="geometry" />
        </mxCell>
      </root>
    </mxGraphModel>
  </diagram>
</mxfile>
